<svg width="205" height="79" viewBox="0 0 205 79" fill="none" xmlns="http://www.w3.org/2000/svg">
<path fill-rule="evenodd" clip-rule="evenodd" d="M22.5 32C22.5 23.1634 29.6634 16 38.5 16C47.3366 16 54.5 23.1634 54.5 32V57.5H49.5V32C49.5 25.9249 44.5751 21 38.5 21C32.4249 21 27.5 25.9249 27.5 32V57.5H22.5V32Z" fill="black"/>
<path fill-rule="evenodd" clip-rule="evenodd" d="M49.5 57.5V62.5H27.5002C27.5001 62.5 27.5 62.5 27.5 60C27.5 57.5 27.5001 57.5 27.5002 57.5H49.5Z" fill="black"/>
<path d="M46 41C46 42.6569 44.6569 44 43 44C41.3431 44 40 42.6569 40 41C40 39.3431 41.3431 38 43 38C44.6569 38 46 39.3431 46 41Z" fill="black"/>
<path d="M78.7675 47.5L72.355 37.0825H72.2875L72.3775 47.5H68.6425V31.57H73.03L79.42 41.965H79.4875L79.3975 31.57H83.1325V47.5H78.7675ZM93.9334 40.615C93.9334 40.03 93.7459 39.5275 93.3709 39.1075C93.0109 38.6875 92.4634 38.4775 91.7284 38.4775C91.3684 38.4775 91.0384 38.5375 90.7384 38.6575C90.4384 38.7625 90.1759 38.9125 89.9509 39.1075C89.7259 39.3025 89.5459 39.535 89.4109 39.805C89.2759 40.06 89.2009 40.33 89.1859 40.615H93.9334ZM97.3309 42.0325C97.3309 42.1825 97.3309 42.3325 97.3309 42.4825C97.3309 42.6325 97.3234 42.775 97.3084 42.91H89.1859C89.2159 43.225 89.3059 43.51 89.4559 43.765C89.6209 44.02 89.8234 44.245 90.0634 44.44C90.3184 44.62 90.5959 44.7625 90.8959 44.8675C91.2109 44.9725 91.5334 45.025 91.8634 45.025C92.4484 45.025 92.9434 44.92 93.3484 44.71C93.7534 44.485 94.0834 44.2 94.3384 43.855L96.9034 45.475C96.3784 46.24 95.6809 46.8325 94.8109 47.2525C93.9559 47.6575 92.9584 47.86 91.8184 47.86C90.9784 47.86 90.1834 47.7325 89.4334 47.4775C88.6834 47.2075 88.0234 46.825 87.4534 46.33C86.8984 45.82 86.4559 45.1975 86.1259 44.4625C85.8109 43.7275 85.6534 42.8875 85.6534 41.9425C85.6534 41.0275 85.8109 40.2025 86.1259 39.4675C86.4409 38.7175 86.8684 38.0875 87.4084 37.5775C87.9484 37.0525 88.5859 36.6475 89.3209 36.3625C90.0559 36.0775 90.8509 35.935 91.7059 35.935C92.5309 35.935 93.2884 36.0775 93.9784 36.3625C94.6684 36.6325 95.2609 37.03 95.7559 37.555C96.2509 38.08 96.6334 38.7175 96.9034 39.4675C97.1884 40.2175 97.3309 41.0725 97.3309 42.0325ZM106.764 47.5L104.356 44.0575L101.881 47.5H97.6063L102.084 41.6275L98.0338 36.295H102.331L104.424 39.2875L106.539 36.295H110.701L106.674 41.6275L111.106 47.5H106.764ZM116.478 39.0625V43.3375C116.478 43.8625 116.576 44.26 116.771 44.53C116.981 44.785 117.348 44.9125 117.873 44.9125C118.053 44.9125 118.241 44.8975 118.436 44.8675C118.646 44.8375 118.818 44.7925 118.953 44.7325L118.998 47.4325C118.743 47.5225 118.421 47.5975 118.031 47.6575C117.641 47.7325 117.251 47.77 116.861 47.77C116.111 47.77 115.481 47.68 114.971 47.5C114.461 47.305 114.048 47.035 113.733 46.69C113.433 46.33 113.216 45.91 113.081 45.43C112.946 44.935 112.878 44.3875 112.878 43.7875V39.0625H111.078V36.295H112.856V33.3475H116.478V36.295H119.111V39.0625H116.478ZM141.545 39.49C141.545 40.885 141.282 42.0925 140.757 43.1125C140.247 44.1175 139.565 44.95 138.71 45.61C137.87 46.255 136.917 46.735 135.852 47.05C134.787 47.35 133.707 47.5 132.612 47.5H126.672V31.57H132.432C133.557 31.57 134.667 31.705 135.762 31.975C136.857 32.23 137.832 32.665 138.687 33.28C139.542 33.88 140.232 34.69 140.757 35.71C141.282 36.73 141.545 37.99 141.545 39.49ZM137.54 39.49C137.54 38.59 137.39 37.8475 137.09 37.2625C136.805 36.6625 136.415 36.19 135.92 35.845C135.44 35.485 134.885 35.23 134.255 35.08C133.64 34.93 133.002 34.855 132.342 34.855H130.43V44.17H132.252C132.942 44.17 133.602 44.095 134.232 43.945C134.877 43.78 135.44 43.5175 135.92 43.1575C136.415 42.7975 136.805 42.3175 137.09 41.7175C137.39 41.1175 137.54 40.375 137.54 39.49ZM155.774 41.8525C155.774 42.7675 155.609 43.6 155.279 44.35C154.949 45.085 154.499 45.715 153.929 46.24C153.359 46.75 152.699 47.1475 151.949 47.4325C151.199 47.7175 150.397 47.86 149.542 47.86C148.702 47.86 147.899 47.7175 147.134 47.4325C146.384 47.1475 145.724 46.75 145.154 46.24C144.599 45.715 144.157 45.085 143.827 44.35C143.497 43.6 143.332 42.7675 143.332 41.8525C143.332 40.9375 143.497 40.1125 143.827 39.3775C144.157 38.6425 144.599 38.02 145.154 37.51C145.724 37 146.384 36.61 147.134 36.34C147.899 36.07 148.702 35.935 149.542 35.935C150.397 35.935 151.199 36.07 151.949 36.34C152.699 36.61 153.359 37 153.929 37.51C154.499 38.02 154.949 38.6425 155.279 39.3775C155.609 40.1125 155.774 40.9375 155.774 41.8525ZM152.219 41.8525C152.219 41.4925 152.159 41.14 152.039 40.795C151.919 40.45 151.747 40.15 151.522 39.895C151.297 39.625 151.019 39.4075 150.689 39.2425C150.359 39.0775 149.977 38.995 149.542 38.995C149.107 38.995 148.724 39.0775 148.394 39.2425C148.064 39.4075 147.787 39.625 147.562 39.895C147.352 40.15 147.187 40.45 147.067 40.795C146.962 41.14 146.909 41.4925 146.909 41.8525C146.909 42.2125 146.962 42.565 147.067 42.91C147.187 43.255 147.359 43.57 147.584 43.855C147.809 44.125 148.087 44.3425 148.417 44.5075C148.747 44.6725 149.129 44.755 149.564 44.755C149.999 44.755 150.382 44.6725 150.712 44.5075C151.042 44.3425 151.319 44.125 151.544 43.855C151.769 43.57 151.934 43.255 152.039 42.91C152.159 42.565 152.219 42.2125 152.219 41.8525ZM169.99 41.8525C169.99 42.7675 169.825 43.6 169.495 44.35C169.165 45.085 168.715 45.715 168.145 46.24C167.575 46.75 166.915 47.1475 166.165 47.4325C165.415 47.7175 164.613 47.86 163.758 47.86C162.918 47.86 162.115 47.7175 161.35 47.4325C160.6 47.1475 159.94 46.75 159.37 46.24C158.815 45.715 158.373 45.085 158.043 44.35C157.713 43.6 157.548 42.7675 157.548 41.8525C157.548 40.9375 157.713 40.1125 158.043 39.3775C158.373 38.6425 158.815 38.02 159.37 37.51C159.94 37 160.6 36.61 161.35 36.34C162.115 36.07 162.918 35.935 163.758 35.935C164.613 35.935 165.415 36.07 166.165 36.34C166.915 36.61 167.575 37 168.145 37.51C168.715 38.02 169.165 38.6425 169.495 39.3775C169.825 40.1125 169.99 40.9375 169.99 41.8525ZM166.435 41.8525C166.435 41.4925 166.375 41.14 166.255 40.795C166.135 40.45 165.963 40.15 165.738 39.895C165.513 39.625 165.235 39.4075 164.905 39.2425C164.575 39.0775 164.193 38.995 163.758 38.995C163.323 38.995 162.94 39.0775 162.61 39.2425C162.28 39.4075 162.003 39.625 161.778 39.895C161.568 40.15 161.403 40.45 161.283 40.795C161.178 41.14 161.125 41.4925 161.125 41.8525C161.125 42.2125 161.178 42.565 161.283 42.91C161.403 43.255 161.575 43.57 161.8 43.855C162.025 44.125 162.303 44.3425 162.633 44.5075C162.963 44.6725 163.345 44.755 163.78 44.755C164.215 44.755 164.598 44.6725 164.928 44.5075C165.258 44.3425 165.535 44.125 165.76 43.855C165.985 43.57 166.15 43.255 166.255 42.91C166.375 42.565 166.435 42.2125 166.435 41.8525ZM179.594 39.31C179.429 39.265 179.264 39.235 179.099 39.22C178.949 39.205 178.799 39.1975 178.649 39.1975C178.154 39.1975 177.734 39.2875 177.389 39.4675C177.059 39.6475 176.789 39.865 176.579 40.12C176.384 40.375 176.242 40.6525 176.152 40.9525C176.062 41.2525 176.017 41.515 176.017 41.74V47.5H172.327V36.295H175.882V37.915H175.927C176.212 37.345 176.617 36.88 177.142 36.52C177.667 36.16 178.274 35.98 178.964 35.98C179.114 35.98 179.257 35.9875 179.392 36.0025C179.542 36.0175 179.662 36.04 179.752 36.07L179.594 39.31Z" fill="black"/>
<path d="M147.5 50.5L148.013 50.9861C152.974 55.6861 160.808 55.4683 165.5 50.5V50.5" stroke="black" stroke-width="3"/>
</svg>
